<svg width="32" height="32" viewBox="0 0 32 32" fill="none" xmlns="http://www.w3.org/2000/svg">
<g clip-path="url(#clip0_24_354)">
<mask id="mask0_24_354" style="mask-type:luminance" maskUnits="userSpaceOnUse" x="1" y="1" width="166" height="31">
<path d="M166.053 1.08789H1.6604V31.3812H166.053V1.08789Z" fill="white"/>
</mask>
<g mask="url(#mask0_24_354)">
<path d="M2.75618 17.9213L11.1828 13.0728L15.1683 10.7746L9.29194 7.39035L2.27133 14.4109C1.43739 15.2352 1.43739 16.6122 2.27133 17.4364L2.74649 17.9116L2.75618 17.9213ZM21.0447 5.48975V17.6788L28.7635 13.2085L21.0447 5.48975ZM17.0204 10.7455L20.0847 12.5297V4.55885L17.6313 2.10549C16.7974 1.28124 15.4301 1.28124 14.5962 2.10549L9.97073 6.73096L17.0204 10.7455ZM3.43498 18.6291L11.1926 26.3479V14.1588L3.43498 18.6291ZM29.9853 14.3819L29.5101 13.9067L21.0835 18.7552L17.098 21.0534L22.9647 24.4376L29.9853 17.417C30.8192 16.5928 30.8192 15.2158 29.9853 14.3916M16.0992 21.6255L12.1138 19.3273V27.2982L14.5671 29.7516C15.401 30.5758 16.7683 30.5758 17.6023 29.7516L22.2277 25.1261L16.0992 21.6158V21.6255Z" fill="#16335A"/>
</g>
</g>
<defs>
<clipPath id="clip0_24_354">
<rect width="32" height="32" fill="white"/>
</clipPath>
</defs>
</svg>
