<svg width="396" height="176" viewBox="0 0 396 176" fill="none" xmlns="http://www.w3.org/2000/svg">
<g clip-path="url(#clip0_314_616)">
<path d="M0 14C0 6.26801 6.26801 0 14 0H382C389.732 0 396 6.26801 396 14V176H0V14Z" fill="#ABD4D7"/>
<g clip-path="url(#clip1_314_616)">
<circle cx="309" cy="167" r="153" fill="#F5B145"/>
<path d="M227.937 151.983C221.385 152.054 212.543 152.926 207.861 147.218C207.067 146.25 206.571 144.94 205.907 143.843C201.471 136.516 193.048 125.295 204.408 119.583C206.463 118.607 216.408 120.138 219.834 120.278C224.623 120.503 229.421 120.13 234.118 119.168C242.574 117.467 249.917 113.897 257.224 109.338C264.777 104.626 270.401 93.5505 280.425 100.092C295.131 109.688 283.995 120.346 275.906 129.185C275.126 130.036 273.371 131.797 272.844 132.777C272.892 134.952 273.38 137.001 273.775 139.133C275.228 146.973 276.781 154.826 277.9 162.72C278.211 164.911 278.793 168.501 278.566 170.629C278.429 171.971 277.859 173.231 276.942 174.22C274.851 176.449 268.441 176.862 265.431 177.074C257.859 177.609 249.806 179.161 242.289 179.323C232.204 179.541 226.823 175.186 227.97 164.944C228.207 161.705 228.083 155.242 227.937 151.983Z" fill="#F17C3B"/>
<path d="M272.844 132.776C272.892 134.951 273.38 137.001 273.775 139.132C275.228 146.972 276.781 154.826 277.9 162.72C278.21 164.91 278.793 168.501 278.566 170.629C278.429 171.97 277.859 173.231 276.942 174.22C274.851 176.449 268.441 176.861 265.431 177.074C257.859 177.608 249.805 179.16 242.289 179.323C232.204 179.541 226.823 175.186 227.97 164.944C228.207 161.704 228.083 155.241 227.937 151.983C231.43 152.042 233.94 151.417 237.274 150.887C248.053 149.176 255.843 144.86 264.73 138.869C266.894 137.41 270.767 133.63 272.844 132.776Z" fill="#4799AE"/>
<path d="M371.087 46.8569C379.091 46.1374 400.604 48.4669 405.792 57.0766C407.82 61.8086 408.73 67.1469 409.82 72.1741C410.567 75.6121 410.36 79.9203 408.15 82.8211C403.335 89.1413 395.884 84.0148 390.338 81.9053C380.33 78.0981 368.229 77.6513 357.729 79.3188C352.826 80.1486 348.537 81.8113 344.043 83.8276C338.014 86.5326 332.081 92.3131 325.757 86.7608C322.645 84.0286 320.381 79.9906 319.887 75.8839C319.062 69.0389 325.445 64.9096 330.387 61.5388C342.433 53.1641 356.468 48.1011 371.087 46.8569Z" fill="#F17C3B"/>
<path d="M377.936 113.854C381.542 113.703 386.768 115.115 387.928 119.038C389.471 124.261 390.154 130.079 391.108 135.478C392.447 143.051 393.995 150.71 394.694 158.367C394.881 161.12 392.53 164.552 389.673 164.893C380.253 166.015 369.802 167.507 360.388 167.875C356.002 168.127 351.175 168.308 347.543 165.377C342.682 161.455 343.393 156.39 343.424 150.787L343.478 137.696C343.458 132.933 343.18 127.81 343.347 123.066C343.472 121.814 344.129 120.7 344.88 119.769C346.452 117.753 349.329 116.898 351.84 116.668C360.407 115.885 369.411 114.536 377.936 113.854Z" fill="#4799AE"/>
</g>
</g>
<defs>
<clipPath id="clip0_314_616">
<rect width="396" height="176" fill="white"/>
</clipPath>
<clipPath id="clip1_314_616">
<rect width="306" height="306" fill="white" transform="translate(156 14)"/>
</clipPath>
</defs>
</svg>
