<svg width="396" height="176" viewBox="0 0 396 176" fill="none" xmlns="http://www.w3.org/2000/svg">
<g clip-path="url(#clip0_314_625)">
<path d="M0 14C0 6.26801 6.26801 0 14 0H382C389.732 0 396 6.26801 396 14V176H0V14Z" fill="#9ECB97"/>
<circle cx="278.096" cy="148" r="135" fill="#F17D3C"/>
<path d="M191.775 44.0176C193.547 52.6131 193.386 59.8678 188.615 67.6776C187.656 69.2468 186.101 70.9136 185.177 72.4376C186.148 74.7021 187.934 78.3273 188.503 80.6313C191.924 94.4858 185.569 108.412 172.27 114.052C166.539 116.42 160.194 116.861 154.19 115.309C152.693 114.912 149.047 113.659 147.802 113.464L147.062 112.812C148.633 110.856 150.173 104.809 150.97 102.13L151.125 101.92C152.258 99.3823 152.935 95.6106 154.1 93.2048C155.936 89.4101 157.681 85.1268 159.6 81.4343C160.995 78.7513 163.467 75.5278 165.122 72.9523C168.338 67.9478 171.397 63.6348 175.528 59.3193C177.504 57.2543 179.677 55.4711 181.73 53.4233L182.598 51.4816L191.775 44.0176Z" fill="#9DA05E"/>
<path d="M151.125 101.92C152.258 99.3819 152.935 95.6101 154.1 93.2044C155.936 89.4096 157.681 85.1264 159.6 81.4339C160.995 78.7509 163.467 75.5274 165.122 72.9519C168.338 67.9474 171.397 63.6344 175.528 59.3189C177.504 57.2539 179.677 55.4706 181.73 53.4229C184.101 62.9126 170.481 68.2951 169.858 71.1016C170.475 72.7611 173.273 75.1451 174.425 76.6116C186.168 91.5584 171.278 111.602 153.604 103.807C152.809 103.456 151.426 102.797 151.125 101.92Z" fill="#F17D3C"/>
<path d="M345.476 174.34C347.227 174.191 348.981 174.59 350.494 175.483C351.081 175.837 352.485 176.985 352.783 177.643C355.323 183.263 357.857 189.066 359.85 194.902C361.212 198.897 358.013 203.238 354.258 204.357C345.758 206.89 337.182 209.092 328.498 210.901C325.376 211.552 322.025 212.71 318.896 213.514C311.081 215.486 303.253 217.408 295.412 219.278C287.031 221.286 278.865 223.365 270.575 225.69C267.056 226.677 262.847 227.225 259.255 228.217C247.954 231.335 236.483 234.256 225.044 236.819C223.931 237.065 222.75 237.297 221.614 237.53C213.57 239.181 208.304 231.17 212.795 224.413C213.751 222.975 216.776 221.49 218.465 220.848C224.094 218.707 229.848 216.838 235.486 214.678L297.086 191.638L325.96 180.847C331.934 178.608 339.243 175.161 345.476 174.34Z" fill="#F5B146"/>
<path d="M335.465 61.2807C339.522 60.9694 342.45 61.5469 344.839 65.2124C348.823 71.3252 359.69 80.8107 351.619 88.0109C347.934 91.2987 342.102 94.2039 337.862 97.0367C328.647 103.193 319.261 109.245 309.875 115.161C307.79 116.466 306.422 117.327 304.118 118.258C298.243 120.634 290.978 111.464 294.224 106.356C297.671 100.933 302.76 95.7322 307.099 90.8959L320.73 75.4959C324.502 71.2472 328.439 66.5104 332.443 62.4772C332.936 61.9809 334.699 61.5057 335.465 61.2807Z" fill="#4699AD"/>
<path d="M207.63 67.3132C213.904 66.7134 217.924 70.9389 222.761 74.4422L233.667 82.2092L247.928 92.5014C251.12 94.7837 256.409 97.9582 258.958 101.099C260.084 102.997 260.526 106.67 259.674 108.639C257.046 114.712 252.369 115.266 247.068 113.485C230.871 107.835 214.087 101.888 198.087 95.6967C189.47 92.3619 193.623 83.1567 197.684 77.8454C201.163 73.2952 200.619 69.3902 207.63 67.3132Z" fill="#4699AD"/>
<path d="M220.915 115.63C223.977 115.524 235.504 115.043 237.43 116.533C240.151 121.287 239.906 133.217 240.52 137.929C241.474 145.246 235.734 145.703 230.188 145.776C226.876 145.841 214.104 146.485 212.152 144.724C210.381 141.494 212.336 124.025 212.668 119.228C212.987 118.866 213.312 118.51 213.643 118.159C216.028 115.649 217.689 115.71 220.915 115.63Z" fill="#F5B146"/>
<path d="M333.249 115.625C336.893 115.453 346.124 115.081 348.998 116.796C350.094 118.528 352.055 138.835 351.935 141.625C349.151 145.183 346.32 145.672 342.063 145.766C338.951 145.846 326.24 146.095 323.737 145.309C321.892 143.567 323.488 122.523 323.997 119.094C324.465 115.941 330.882 115.68 333.249 115.625Z" fill="#F5B146"/>
<path d="M134.486 97.7286C130.576 97.3908 121.966 93.8026 119.055 90.9653C113.147 85.2058 109.875 78.5386 109.648 70.2951C109.347 59.3748 114.467 49.3156 124.473 44.5978C126.679 43.5578 127.554 43.0661 129.91 42.3763C131.817 41.8181 137.564 41.5216 138.61 40.7073C140.477 39.2533 141.85 35.0402 143.951 33.116C151.355 26.3346 156.801 24.486 166.664 24.522C174.203 24.5495 178.508 27.2568 184.275 31.9272C185.565 33.1019 187.15 34.2634 188.085 35.746C189.265 37.6172 190.487 42.1808 192.04 43.5338L191.775 44.0171L182.598 51.4811L182.545 51.3766C181.5 49.2871 181.74 48.1811 180.97 46.1551C178.993 40.8803 174.581 37.4507 169.323 35.7434C165.004 34.3408 161.155 35.1774 157.161 37.0388C150.033 40.3613 148.987 47.2858 146.352 53.6511C137.647 50.2748 127.368 52.5198 122.402 61.5891C119.925 66.1123 121.405 71.7156 121.6 76.4878C123.781 79.6161 127.246 84.1666 130.948 85.4556C134.317 86.6281 138.808 86.9568 142.32 86.5086C144.206 92.0876 145.468 98.1931 150.685 102.119L150.97 102.13C150.173 104.808 148.633 110.856 147.062 112.812C140.746 108.621 137.087 104.983 134.486 97.7286Z" fill="#71AD66" fill-opacity="0.803922"/>
</g>
<defs>
<clipPath id="clip0_314_625">
<rect width="396" height="176" fill="white"/>
</clipPath>
</defs>
</svg>
