<svg width="396" height="176" viewBox="0 0 396 176" fill="none" xmlns="http://www.w3.org/2000/svg">
<g clip-path="url(#clip0_314_637)">
<path d="M0 14C0 6.26801 6.26801 0 14 0H382C389.732 0 396 6.26801 396 14V176H0V14Z" fill="#FECD81"/>
<path d="M238.4 23.2562C266.49 16.2858 296.053 18.2431 322.979 28.8559C328.781 31.1416 334.524 33.1336 339.602 36.9557C340.705 37.7859 340.756 38.0185 342.189 38.1277C346.067 37.6783 349.941 37.1949 353.811 36.6777C361.173 35.6228 371.484 32.76 372.562 43.4893C373.115 48.9933 371.407 55.4766 371.934 61.3813C372.193 61.7403 372.416 61.9311 372.723 62.2501C393.685 83.9738 407.03 111.915 410.75 141.873C415.758 182.58 402.43 226.36 373.499 255.807C371.742 257.595 369.987 259.417 368.178 261.151C344.593 283.812 313.662 297.262 281.004 299.055C236.699 301.467 198.654 287.06 168.026 254.822C152.192 237.983 140.969 217.344 135.443 194.901C134.679 191.917 133.62 188.382 133.178 185.362C131.04 170.731 131.317 155.652 132.239 140.93C132.604 135.105 133.928 130.142 135.297 124.582C140.498 103.451 150.31 82.4461 165.611 66.7408C166.581 65.7451 167.373 63.9613 168.366 62.9286C172.853 58.4281 182.618 50.1816 182.618 50.1816C182.618 50.1816 221.821 22.2014 238.4 23.2562Z" fill="#84C176"/>
<path d="M342.188 38.1286C346.067 37.6792 349.941 37.1958 353.811 36.6786C361.173 35.6237 371.484 32.7609 372.562 43.4902C373.115 48.9942 371.407 55.4775 371.934 61.3822C368.117 67.6215 367.777 68.5275 359.961 68.0152C349.934 67.358 340.077 65.85 330.129 64.5147C323.784 63.663 317.237 63.3882 310.889 62.4667C306.421 61.812 301.963 60.8065 300.615 55.8372C299.874 53.105 300.286 50.6345 301.608 48.1347C303.993 43.6225 309.444 44.0235 313.737 43.0162C322.906 40.9345 333.187 40.7118 342.188 38.1286Z" fill="#4699AD"/>
<path d="M202.918 19.2318C214.81 20.1531 226.516 22.5001 238.4 23.2562C241.084 24.7922 243.092 26.4901 243.896 29.5952C245.256 34.8479 243.073 39.4713 237.72 40.7164C228.047 42.9668 218.278 43.9788 208.543 45.5773L188.599 49.0486C187.046 49.3123 183.87 50.0348 182.618 50.1816C181.955 50.0531 180.809 50.0803 180.024 49.9648C177.851 49.6453 176.304 48.7851 174.401 47.7906C173.489 46.3528 172.395 44.2448 172.291 42.2686C171.97 36.1552 172.428 29.0322 174.402 23.256C177.52 15.3944 195.806 18.6809 202.918 19.2318Z" fill="#4699AD"/>
<path d="M333.396 80.3494C334.332 80.1494 336.054 80.2871 337.038 80.2134C366.414 78.0104 393.002 103.028 391.307 132.748C391.012 137.935 391.103 141.545 389.475 146.702C375.697 190.385 317.186 197.175 294.495 156.992C292.184 152.901 290.924 148.405 288.782 144.362C280.231 138.969 261.341 137.68 253.694 144.523C246.707 170.908 226.599 186.466 199.188 185.382C197.781 185.325 196.373 185.095 194.986 184.898C155.504 179.295 137.108 131.885 162.437 101.044C169.233 92.7691 178.908 86.0206 189.444 83.6381C202.959 80.5816 218.206 82.1601 230.119 89.5169C241.926 96.8931 250.285 108.693 253.326 122.279C254.257 126.282 254.184 130.029 255.056 133.705C255.557 133.404 256.068 133.12 256.588 132.854C262.267 130.002 274.247 129.708 280.437 131.206C283.203 131.876 285.518 132.752 288.22 133.633C288.196 133.45 288.174 133.265 288.154 133.081C287.84 130.051 288.266 127.361 288.599 124.365C291.122 101.623 310.445 82.7646 333.396 80.3494Z" fill="#F17D3C"/>
<path d="M200.805 91.2746C224.253 90.1798 244.137 108.322 245.191 131.771C246.245 155.22 228.068 175.073 204.617 176.086C181.224 177.096 161.431 158.974 160.38 135.583C159.329 112.192 177.416 92.3666 200.805 91.2746Z" fill="#84C277"/>
<path d="M206.262 129.601C210.323 129.507 223.398 128.977 226.452 130.42C227.102 131.032 227.264 131.933 227.441 132.779C228.134 136.076 230.265 155.167 228.9 157.067C227.516 158.994 225.262 159.968 222.979 160.245C217.583 160.354 212.144 160.242 206.744 160.295C204.509 160.317 202.055 160.309 199.862 159.946C198.756 154.569 199.802 137.296 200.599 131.74C202.988 130.248 203.38 129.902 206.262 129.601Z" fill="#4699AD"/>
<path d="M335.336 89.5044C358.669 87.1146 379.515 104.11 381.873 127.447C384.233 150.783 367.209 171.606 343.869 173.933C320.573 176.256 299.798 159.272 297.444 135.98C295.09 112.687 312.047 91.8896 335.336 89.5044Z" fill="#84C277"/>
<path d="M321.618 129.597C327.425 129.472 334.713 129.088 340.486 129.999C341.209 130.113 342.554 131.046 343.189 131.475C343.947 139.057 344.28 147.45 344.865 155.1C345.067 157.735 340.909 159.872 338.555 160.216C334.74 160.362 330.509 160.272 326.669 160.287C323.097 160.301 318.505 160.409 315.057 159.919C314.416 155.015 314.63 136.694 316.649 131.385C317.082 130.245 320.255 129.772 321.618 129.597Z" fill="#4699AD"/>
</g>
<defs>
<clipPath id="clip0_314_637">
<rect width="396" height="176" fill="white"/>
</clipPath>
</defs>
</svg>
