<svg width="396" height="176" viewBox="0 0 396 176" fill="none" xmlns="http://www.w3.org/2000/svg">
<g clip-path="url(#clip0_314_631)">
<path d="M0 14C0 6.26801 6.26801 0 14 0H382C389.732 0 396 6.26801 396 14V176H0V14Z" fill="#FECD81"/>
<g clip-path="url(#clip1_314_631)">
<circle cx="268" cy="166" r="153" fill="#84C176"/>
<path d="M186.937 150.983C180.385 151.054 171.543 151.926 166.861 146.218C166.067 145.25 165.571 143.94 164.907 142.843C160.471 135.516 152.048 124.295 163.408 118.583C165.463 117.607 175.408 119.138 178.834 119.278C183.623 119.503 188.421 119.13 193.118 118.168C201.574 116.467 208.917 112.897 216.224 108.338C223.777 103.626 229.401 92.5505 239.425 99.092C254.131 108.688 242.995 119.346 234.906 128.185C234.126 129.036 232.371 130.797 231.844 131.777C231.892 133.952 232.38 136.001 232.775 138.133C234.228 145.973 235.781 153.826 236.9 161.72C237.211 163.911 237.793 167.501 237.566 169.629C237.429 170.971 236.859 172.231 235.942 173.22C233.851 175.449 227.441 175.862 224.431 176.074C216.859 176.609 208.806 178.161 201.289 178.323C191.204 178.541 185.823 174.186 186.97 163.944C187.207 160.705 187.083 154.242 186.937 150.983Z" fill="#4799AE"/>
<path d="M231.844 131.776C231.892 133.951 232.38 136.001 232.775 138.132C234.228 145.972 235.781 153.826 236.9 161.72C237.21 163.91 237.793 167.501 237.566 169.629C237.429 170.97 236.859 172.231 235.942 173.22C233.851 175.449 227.441 175.861 224.431 176.074C216.859 176.608 208.805 178.16 201.289 178.323C191.204 178.541 185.823 174.186 186.97 163.944C187.207 160.704 187.083 154.241 186.937 150.983C190.43 151.042 192.94 150.417 196.274 149.887C207.053 148.176 214.843 143.86 223.73 137.869C225.894 136.41 229.767 132.63 231.844 131.776Z" fill="#F17C3B"/>
<path d="M330.087 45.8569C338.091 45.1374 359.604 47.4669 364.792 56.0766C366.82 60.8086 367.73 66.1469 368.82 71.1741C369.567 74.6121 369.36 78.9203 367.15 81.8211C362.335 88.1413 354.884 83.0148 349.338 80.9053C339.33 77.0981 327.229 76.6513 316.729 78.3188C311.826 79.1486 307.537 80.8113 303.043 82.8276C297.014 85.5326 291.081 91.3131 284.757 85.7608C281.645 83.0286 279.381 78.9906 278.887 74.8839C278.062 68.0389 284.445 63.9096 289.387 60.5388C301.433 52.1641 315.468 47.1011 330.087 45.8569Z" fill="#4799AE"/>
<path d="M336.936 112.854C340.542 112.703 345.769 114.115 346.928 118.038C348.471 123.261 349.154 129.079 350.108 134.478C351.447 142.051 352.995 149.71 353.694 157.367C353.881 160.12 351.53 163.552 348.673 163.893C339.253 165.015 328.803 166.507 319.388 166.875C315.002 167.127 310.175 167.308 306.543 164.377C301.683 160.455 302.393 155.39 302.424 149.787L302.479 136.696C302.459 131.933 302.18 126.81 302.348 122.066C302.472 120.814 303.129 119.7 303.88 118.769C305.453 116.753 308.329 115.898 310.84 115.668C319.407 114.885 328.411 113.536 336.936 112.854Z" fill="#F17C3B"/>
</g>
</g>
<defs>
<clipPath id="clip0_314_631">
<rect width="396" height="176" fill="white"/>
</clipPath>
<clipPath id="clip1_314_631">
<rect width="306" height="306" fill="white" transform="translate(115 13)"/>
</clipPath>
</defs>
</svg>
