<svg width="396" height="176" viewBox="0 0 396 176" fill="none" xmlns="http://www.w3.org/2000/svg">
<g clip-path="url(#clip0_765_935)">
<path d="M0 14C0 6.26801 6.26801 0 14 0H382C389.732 0 396 6.26801 396 14V176H0V14Z" fill="#FECD81"/>
<ellipse cx="292" cy="164.5" rx="146" ry="146.5" fill="#84C176"/>
<path d="M387.28 129.565C390.23 129.314 394.782 130.665 395.96 133.331C398.347 138.725 397.18 144.013 392.042 146.815C384.998 150.591 377.616 155.357 369.923 157.756C356.586 161.914 342.604 162.445 329.149 158.876C324.713 157.557 322.901 154.202 322.308 149.83C321.823 146.25 320.661 141.319 322.399 137.965C323.748 135.411 326.324 133.737 329.206 133.541C332.643 133.289 338.056 135.989 342.301 136.758C353.857 138.853 365.138 138.318 376.249 134.33C379.908 133.017 383.72 130.739 387.28 129.565Z" fill="#4699AD"/>
<path d="M195.654 131.347C203.827 130.486 205.86 133.884 213.06 135.784C224.875 138.902 237.813 139.02 249.511 135.313C253.175 134.152 255.535 132.469 259.728 133.261C268.003 134.781 265.444 145.356 264.749 151.197C264.418 153.973 263.373 155.867 261.116 157.423C252.869 161.535 238.48 161.615 229.477 160.486C218.883 159.156 209.685 156.054 200.487 150.573C197.02 148.507 193.924 147.053 190.876 144.344C188.972 138.687 190.02 134.005 195.654 131.347Z" fill="#4699AD"/>
<path d="M229.656 96.0907C229.864 96.0674 230.165 96.0312 230.377 96.0264C235.95 96.0607 241.072 95.1764 245.876 98.9294C249.52 101.776 250.669 111.302 244.242 112.01C243.564 112.085 239.796 110.543 238.808 110.174C235.197 108.825 232.131 108.214 228.247 108.208C222.129 108.328 219.182 110.192 213.442 111.496C212.576 111.643 210.802 111.718 210.168 110.952C202.3 101.44 225.354 96.5047 229.656 96.0907Z" fill="#4699AD"/>
<path d="M348.4 96.0937C355.936 95.4347 362.945 96.7905 369.734 100.07C375.222 102.721 380 110 377.772 112.411C375.543 114.823 372.712 112.791 369.19 111.377C363.191 108.991 357.701 107.578 351.222 109.008C347.517 109.789 339.204 113.784 338.745 107.056C338.484 103.239 339.671 100.284 342.082 97.4572C344.663 96.5657 345.78 96.342 348.4 96.0937Z" fill="#4699AD"/>
<path d="M139 168.434C139.446 168.544 139.685 168.498 139.846 168.888C140.667 170.876 140.694 175.773 140.714 177.953L140.472 179.326L140.143 179.527C139.871 179.022 139.472 176.725 139 175.473V168.434Z" fill="#F2B142" fill-opacity="0.0196078"/>
<path d="M139 150.095C139.488 150.469 139.642 150.628 139.952 151.159L140.718 151.007C140.467 153.114 140.697 158.369 139 159.588V150.095Z" fill="#F7B039" fill-opacity="0.0117647"/>
</g>
<defs>
<clipPath id="clip0_765_935">
<rect width="396" height="176" fill="white"/>
</clipPath>
</defs>
</svg>
