<svg width="396" height="176" viewBox="0 0 396 176" fill="none" xmlns="http://www.w3.org/2000/svg">
<g clip-path="url(#clip0_314_607)">
<path d="M0 14C0 6.26801 6.26801 0 14 0H382C389.732 0 396 6.26801 396 14V176H0V14Z" fill="#9ECB97"/>
<circle cx="287" cy="155.758" r="135" fill="#F17D3C"/>
<path d="M178.71 133.257C178.011 122.426 180.76 114.012 186.375 104.893C201.165 80.873 236.366 73.1303 258.107 92.2798C261.341 95.1283 263.988 98.964 266.334 102.592C280.404 125.058 267.192 159.082 239.336 161.276C211.739 163.449 190.239 132.721 210.503 110.235C224.892 94.2303 256.48 99.923 257.073 123.436C257.717 135.677 248.307 146.552 235.639 145.758C221.227 144.855 213.503 129.871 223.546 118.546C224.315 117.678 226.461 116.219 227.617 116.04C228.722 115.599 228.954 115.606 229.468 114.719L229.298 114.177C228.641 113.638 228.191 113.692 227.356 113.646C222.037 115.337 217.881 119.174 216.04 124.54C210.557 140.519 228.999 152.703 243.369 147.893C249.098 145.931 253.815 141.777 256.486 136.341C258.269 132.735 260.3 126.739 260.043 122.777C258.708 102.16 237.379 88.0223 217.914 95.2863C199.73 102.073 192.351 113.764 190.687 132.415L178.71 133.257Z" fill="#479B9B"/>
<path d="M235.381 116.442C235.807 115.081 234.843 114.375 236.433 113.563C239.774 115.186 243.232 117.589 244.461 121.284C245.234 123.609 245.06 126.144 243.977 128.342C241.888 132.495 237.509 134.861 233.49 132.122C232.847 131.684 232.605 131.692 232.046 131.019C232.029 130.955 231.875 130.372 231.875 130.372C233.643 125.559 234.525 121.456 235.381 116.442Z" fill="#F17D3C"/>
<path d="M227.356 113.646C230.235 112.956 233.641 112.08 236.433 113.564C234.843 114.375 235.807 115.081 235.381 116.442C235.267 116.05 235.249 116.074 234.959 115.776C232.011 115.494 230.578 115.658 227.617 116.04C228.722 115.599 228.954 115.606 229.468 114.72L229.298 114.177C228.641 113.638 228.191 113.692 227.356 113.646Z" fill="#F17D3C"/>
<path d="M312.246 139.755C300.458 142.716 300.303 145.109 299.329 133.227C297.255 107.935 315.588 84.1356 340.567 79.9381C352.239 77.9596 364.218 80.7096 373.857 87.5808C381.867 93.3086 388.524 103.955 390.108 113.593C391.93 124.103 389.473 134.904 383.285 143.592C378.164 150.661 370.156 155.744 361.521 157.094C352.299 158.542 342.878 156.301 335.296 150.857C321.547 140.812 318.716 123.499 328.701 109.598C337.333 97.9196 355.962 94.6413 367.676 103.349C377.495 110.648 377.986 126.356 370.94 135.053C360.862 147.493 337.684 142.125 339.281 124.714C339.589 121.361 341.65 115.782 344.549 114.308C344.84 113.804 344.906 113.655 345.088 113.102C344.669 112.688 344.106 112.8 343.37 112.745C339.692 114.787 336.977 118.207 335.823 122.253C330.853 140.21 353.937 151.199 367.444 141.852C372.606 138.981 376.253 132.757 377.719 126.995C379.508 119.966 378.254 112.548 374.336 106.358C364.932 91.5018 346.756 87.1276 331.562 96.0206C321.84 101.711 315.83 108.988 312.765 119.949C311.067 126.14 311.754 133.35 312.246 139.755Z" fill="#479B9B"/>
<path d="M353.245 110.35C355.998 110.635 359.775 112.091 361.305 114.397C365.781 121.143 361 131 357.059 130.076C353.117 129.151 351 129.5 352.433 122.823C353.866 116.145 352.577 113.259 352.377 112.015C352.221 110.865 352.281 110.821 353.245 110.35Z" fill="#F17D3C"/>
<path d="M346.23 111.323C348.6 110.343 350.734 110.217 353.245 110.349C352.281 110.821 355 112.745 352.376 112.015C349.753 111.285 347.168 113.138 344.549 114.307C344.84 113.804 344.906 113.654 345.088 113.102C344.669 112.688 344.106 112.799 343.37 112.745C344.194 112.239 345.331 111.744 346.23 111.323Z" fill="#F17D3C"/>
<path d="M276.05 15H295.724L295.376 15.7772C295.746 16.3641 296.244 16.3089 297.101 16.5401C289.353 16.4366 282.458 16.6732 274.857 16.7283C275.848 16.447 276.626 16.5764 277.686 16.0934C277.432 15.4676 276.825 15.3742 276.05 15Z" fill="#F17D3C" fill-opacity="0.372549"/>
</g>
<defs>
<clipPath id="clip0_314_607">
<rect width="396" height="176" fill="white"/>
</clipPath>
</defs>
</svg>
