<svg width="396" height="176" viewBox="0 0 396 176" fill="none" xmlns="http://www.w3.org/2000/svg">
<g clip-path="url(#clip0_314_622)">
<path d="M0 14C0 6.26801 6.26801 0 14 0H382C389.732 0 396 6.26801 396 14V176H0V14Z" fill="#ABD4D7"/>
<g clip-path="url(#clip1_314_622)">
<circle cx="267" cy="170" r="153" fill="#F5B145"/>
<path d="M329.337 32.0248C332.387 31.9768 336.386 31.2211 339.474 30.7098L352.957 28.4613C361.569 27.0198 370.06 25.6416 378.75 24.7334C382.907 24.299 386.87 22.5216 391.255 23.2371C393.15 23.5463 394.63 24.5602 396.262 25.4906C397.05 26.8706 398.422 29.1876 398.595 30.7426C399.342 37.3968 399.005 45.1131 397.867 51.6998C397.125 55.9828 393.065 58.5571 388.917 58.5071C382.302 58.4268 374.787 57.7098 368.215 56.7048C359.278 55.2221 349.545 54.8888 340.523 53.3938C335.931 52.6328 330.516 52.6458 326.148 51.0598C323.254 50.0093 320.923 45.8741 320.984 42.9168C320.641 36.3121 323.92 34.3356 329.337 32.0248Z" fill="#4698AD"/>
<path d="M163.209 59.4259C162.774 57.3414 162.172 54.2679 162.481 52.1651C163.391 45.9634 161.665 35.8639 166.581 31.3756C168.102 29.9819 170.02 29.0989 172.068 28.8509C174.527 28.5659 180.071 29.4089 182.77 29.7214C190.217 30.5836 197.117 31.7894 204.628 32.1189C212.573 34.0529 221.321 34.4106 229.387 35.3481C233.483 35.8241 237.518 36.2576 239.62 40.2279C243.364 47.2964 239.219 54.5919 231.424 55.5614C224.652 56.4034 217.955 57.3069 211.38 58.3926L189.501 62.0359C185.175 62.7609 180.771 63.5951 176.421 64.1361C173.885 64.4516 172.238 64.7174 169.75 64.1586C166.935 63.5261 164.536 60.1216 163.209 59.4259Z" fill="#4698AD"/>
<path d="M367.138 74.6044C369.355 74.2419 372.143 74.9249 373.968 76.2247C374.458 76.5742 375.128 77.0992 375.345 77.6702C377.163 82.4467 377.785 87.9777 379.08 92.9572C380.46 98.2699 381.948 103.558 383.39 108.854C384.27 112.086 385.325 115.422 385.795 118.738C386.088 120.806 384.858 123.263 383.655 124.872C378.478 131.789 365.995 132.566 358.192 133.735C353.682 134.41 349.192 135.206 344.676 135.842C341.982 136.179 339.308 136.745 336.64 137.246C335.311 136.546 334.039 135.857 332.992 134.759C331.953 133.68 331.22 132.343 330.869 130.886C330.241 128.38 330.112 125.619 329.825 123.053C329.095 116.506 328.67 109.998 328.083 103.444C327.577 97.7977 326.411 91.9914 326.532 86.3189C327.075 85.4069 327.637 84.4714 328.311 83.6499C329.803 81.8324 331.906 80.3977 334.11 79.5949C339.741 77.5439 346.371 77.5899 352.291 76.7849C357.238 76.1122 362.169 75.0609 367.138 74.6044Z" fill="#F17D3C"/>
<path d="M239.152 93.596C240.34 93.3353 241.942 93.3233 243.161 93.3578C246.298 93.4463 248.263 94.9953 250.303 97.182C251.884 105.081 253.518 113.032 255.523 120.835C256.783 125.74 258.553 130.674 259.487 135.639C260.024 138.494 259.703 140.853 258.025 143.278C256.51 145.468 254.353 147.092 251.951 148.202C244.492 151.649 229.873 152.756 221.197 154.265C217.777 154.861 211.13 156.553 208.173 154.483C206.104 153.036 204.904 150.292 204.576 147.866C203.244 138.012 202.558 128.154 201.82 118.245C201.525 114.273 200.757 109.759 201.12 105.795C201.245 104.425 201.83 103.055 202.673 101.976C207.136 96.2688 219.09 96.6123 225.698 95.694C230.194 95.0693 234.646 94.1478 239.152 93.596Z" fill="#F17D3C"/>
</g>
</g>
<defs>
<clipPath id="clip0_314_622">
<rect width="396" height="176" fill="white"/>
</clipPath>
<clipPath id="clip1_314_622">
<rect width="368" height="323" fill="white" transform="translate(115)"/>
</clipPath>
</defs>
</svg>
