<svg width="396" height="176" viewBox="0 0 396 176" fill="none" xmlns="http://www.w3.org/2000/svg">
<g clip-path="url(#clip0_763_237)">
<path d="M0 14C0 6.26801 6.26801 0 14 0H382C389.732 0 396 6.26801 396 14V176H0V14Z" fill="#9ECB97"/>
<ellipse cx="262" cy="166.5" rx="146" ry="146.5" fill="#F17D3C"/>
<path d="M357.28 131.565C360.23 131.314 364.782 132.665 365.96 135.331C368.347 140.725 367.18 146.013 362.042 148.815C354.998 152.591 347.616 157.357 339.923 159.756C326.586 163.914 312.604 164.445 299.149 160.876C294.713 159.557 292.901 156.202 292.308 151.83C291.823 148.25 290.661 143.319 292.399 139.965C293.748 137.411 296.324 135.737 299.206 135.541C302.643 135.289 308.056 137.989 312.301 138.758C323.857 140.853 335.138 140.318 346.249 136.33C349.908 135.017 353.72 132.739 357.28 131.565Z" fill="#4699AD"/>
<path d="M165.654 133.347C173.827 132.486 175.86 135.884 183.06 137.784C194.875 140.902 207.813 141.02 219.511 137.313C223.175 136.152 225.535 134.469 229.728 135.261C238.003 136.781 235.444 147.356 234.749 153.197C234.418 155.973 233.373 157.867 231.116 159.423C222.869 163.535 208.48 163.615 199.477 162.486C188.883 161.156 179.685 158.054 170.487 152.573C167.02 150.507 163.924 149.053 160.876 146.344C158.972 140.687 160.02 136.005 165.654 133.347Z" fill="#4699AD"/>
<path d="M199.656 98.0907C199.864 98.0674 200.165 98.0312 200.377 98.0264C205.95 98.0607 211.072 97.1764 215.876 100.929C219.52 103.776 220.669 113.302 214.242 114.01C213.564 114.085 209.796 112.543 208.808 112.174C205.197 110.825 202.131 110.214 198.247 110.208C192.129 110.328 189.182 112.192 183.442 113.496C182.576 113.643 180.802 113.718 180.168 112.952C172.3 103.44 195.354 98.5047 199.656 98.0907Z" fill="#4699AD"/>
<path d="M318.4 98.0937C325.936 97.4347 332.945 98.7905 339.734 102.07C345.222 104.721 350 112 347.772 114.411C345.543 116.823 342.712 114.791 339.19 113.377C333.191 110.991 327.701 109.578 321.222 111.008C317.517 111.789 309.204 115.784 308.745 109.056C308.484 105.239 309.671 102.284 312.082 99.4572C314.663 98.5657 315.78 98.342 318.4 98.0937Z" fill="#4699AD"/>
<path d="M109 170.434C109.446 170.544 109.685 170.498 109.846 170.888C110.667 172.876 110.694 177.773 110.714 179.953L110.472 181.326L110.143 181.527C109.871 181.022 109.472 178.725 109 177.473V170.434Z" fill="#F2B142" fill-opacity="0.0196078"/>
<path d="M109 152.095C109.488 152.469 109.642 152.628 109.952 153.159L110.718 153.007C110.467 155.114 110.697 160.369 109 161.588V152.095Z" fill="#F7B039" fill-opacity="0.0117647"/>
</g>
<defs>
<clipPath id="clip0_763_237">
<rect width="396" height="176" fill="white"/>
</clipPath>
</defs>
</svg>
