<svg width="396" height="176" viewBox="0 0 396 176" fill="none" xmlns="http://www.w3.org/2000/svg">
<g clip-path="url(#clip0_314_610)">
<path d="M0 14C0 6.26801 6.26801 0 14 0H382C389.732 0 396 6.26801 396 14V176H0V14Z" fill="#9ECB97"/>
<g clip-path="url(#clip1_314_610)">
<circle cx="281.653" cy="149.5" r="135" fill="#F17D3C"/>
<path d="M223.208 68.7758C225.229 68.6913 227.193 68.5493 228.963 69.7818C232.052 71.9333 235.373 76.8673 236.268 80.5095C237.092 83.8583 235.639 87.2738 233.793 89.973C223.522 104.991 207.284 112.878 190.05 116.504C187.19 117.065 184.227 117.784 181.484 116.348C179.754 115.44 178.46 113.876 177.892 112.006C177.096 109.441 177.692 105.698 179.695 104.069C181.5 102.601 186.274 101.118 188.673 100.076C196.193 96.81 201.483 94.1665 207.149 88.1748C209.223 85.982 210.779 84.7478 212.647 82.0285C214.816 78.8718 216.326 76.1683 218.004 72.7213C219.168 70.3295 220.758 69.5 223.208 68.7758Z" fill="#F5B146"/>
<path d="M335.832 68.7884C345.656 68.3882 344.735 74.4127 349.538 81.2459C354.78 89.0642 362.019 94.4412 370.425 98.4947C372.964 99.7189 382.824 103.011 383.925 105.009C387.389 111.3 383.543 118.378 375.515 116.953C357.551 114.869 333.535 102.338 326.469 84.7829C324.569 80.0644 331.169 70.2844 335.832 68.7884Z" fill="#F5B146"/>
<path d="M329.942 112.347C335.053 112.128 344.317 112.078 349.506 112.617C350.071 112.676 350.706 113.58 350.947 114.187C351.148 114.697 351.285 115.23 351.355 115.774C351.503 116.886 351.528 118.233 351.543 119.687C351.601 125.244 354.021 132.285 353.128 137.615C352.909 138.926 348.933 141.291 347.62 141.738C344.67 142.148 327.48 142.413 325.201 141.254C323.363 138.901 324.422 127.8 324.619 124.305C324.869 119.858 324.328 113.081 329.942 112.347Z" fill="#4699AD"/>
<path d="M218.533 112.322C222.097 112.29 236.618 111.608 239.061 112.926C239.823 113.337 240.291 114.036 240.516 114.856C240.956 116.461 240.743 118.546 240.826 120.215C241.075 125.18 241.283 131.605 242.744 136.324C241.235 139.418 240.032 140.308 236.986 141.645C234.096 142.184 217.691 142.104 214.455 141.78C212.996 138.592 213.11 135.619 213.358 132.176C213.756 126.634 213.89 120.9 214.571 115.396C216.122 113.628 216.485 113.349 218.533 112.322Z" fill="#4699AD"/>
</g>
</g>
<defs>
<clipPath id="clip0_314_610">
<rect width="396" height="176" fill="white"/>
</clipPath>
<clipPath id="clip1_314_610">
<rect width="271" height="269" fill="white" transform="translate(147 15)"/>
</clipPath>
</defs>
</svg>
