<svg width="396" height="176" viewBox="0 0 396 176" fill="none" xmlns="http://www.w3.org/2000/svg">
<g clip-path="url(#clip0_314_613)">
<path d="M0 14C0 6.26801 6.26801 0 14 0H382C389.732 0 396 6.26801 396 14V176H0V14Z" fill="#FAA77D"/>
<g clip-path="url(#clip1_314_613)">
<path d="M147 144.335L147.063 144.234C148.266 142.323 147.784 133.476 148.414 130.798C149.801 124.897 150.757 118.441 152.409 112.638C162.234 77.5357 185.776 47.8652 217.726 30.3162C245.82 14.8388 278.395 9.53067 309.95 15.2882C314.274 16.0678 317.544 16.5582 321.805 17.7373C332.35 20.6553 342.46 24.7823 352.177 29.7999C355.227 31.416 358.076 33.5428 360.98 35.3698C374.785 44.0575 387.03 55.3885 396.488 68.698C400.33 74.1055 404.318 79.4632 407.315 85.4215C413.238 97.199 418.373 109.118 420.628 122.201C421.343 126.31 423.472 131.662 422.25 135.907C421.125 139.953 420.805 141.11 420.97 145.314C420.558 146.777 420.825 156.861 420.712 159.207L420.8 161.425C421.025 162.878 421.615 163.664 422.033 165.086C422.273 165.905 422.297 166.753 422.495 167.399C422.715 173.606 418.902 186.689 417.457 193.203C416.71 193.75 416.825 193.868 416.065 193.793L415.052 192.812L414.21 192.891C413.585 194.605 415.715 195.967 415.797 197.939C410.827 211.898 402.483 226.995 393.025 238.415C387.508 244.216 381.959 249.999 376.049 255.398C374.271 257.022 372.499 258.278 370.793 259.798C366.233 263.97 360.597 267.068 355.322 270.408C350.679 273.348 343.765 275.723 338.842 278.133C328.359 283.26 317.136 284.945 305.882 287.455C303.837 287.91 293.296 288.468 292.467 289H279.572C277.685 287.853 269.394 288.045 266.802 287.613C264.613 287.325 262.45 286.63 260.279 286.253C207.203 277.053 161.92 234.185 150.758 181.383C150.007 177.831 148.991 174.191 148.399 170.536C148.001 168.082 148.085 159.149 147 157.437V144.335ZM380.447 248.874C381.313 247.311 382.593 246.542 383.895 245.306C383.865 245.159 383.835 245.012 383.805 244.865L383.507 244.715C382.143 245.774 380.789 246.801 379.992 248.384L380.1 248.829L380.447 248.874ZM419.55 133.595C419.495 134.638 419.412 135.107 419.767 136.093C420.092 135.659 419.985 135.91 419.99 135.28C419.937 134.691 419.975 134.119 419.997 133.528C420.285 132.322 420.49 128.404 420.003 127.32C419.59 127.822 419.653 128.284 419.543 129.022C419.41 130.792 419.457 131.825 419.55 133.595ZM419.45 169.24C419.263 171.219 419.328 173.213 419.638 175.176L419.772 175.543L420.025 175.368C420.415 173.991 420.368 166.516 420.035 165.224C419.643 165.558 419.69 166.395 419.61 167.058L419.45 169.24ZM412.628 200.228C413.178 199.186 413.223 198.244 412.818 197.142C412.375 198.419 412.085 198.95 412.628 200.228Z" fill="#4799AD"/>
<path d="M240.444 101.866C243.198 101.764 246.21 101.774 248.984 101.732C250.26 112.586 253.283 133.206 239.07 136.481C228.16 138.995 216.998 136.145 213.752 124.117C209.964 124.639 206.171 125.127 202.374 125.581C199.037 125.964 189.016 127.406 185.965 128.122C184.747 120.564 182.711 111.25 182.114 103.87C187.043 104.013 196.264 103.279 201.501 103.096L240.444 101.866Z" fill="#F6B145"/>
<path d="M366.485 101.628C366.642 101.679 366.771 101.857 366.911 102C367.875 110.228 369.948 125.269 364.321 131.933C356.447 141.258 333.921 138.597 332.485 124.285C328.151 124.316 317.701 125.914 313.315 126.679C310.206 127.236 306.799 127.585 303.642 127.922C302.792 119.816 301.257 112.01 300.057 103.954C302.268 103.977 305.397 103.691 307.688 103.587C313.089 103.334 318.491 103.125 323.895 102.96C334.148 102.738 344.398 102.425 354.644 102.02C358.549 101.879 362.609 101.892 366.485 101.628Z" fill="#F6B145"/>
</g>
</g>
<defs>
<clipPath id="clip0_314_613">
<rect width="396" height="176" fill="white"/>
</clipPath>
<clipPath id="clip1_314_613">
<rect width="277" height="277" fill="white" transform="translate(147 12)"/>
</clipPath>
</defs>
</svg>
