<svg width="396" height="176" viewBox="0 0 396 176" fill="none" xmlns="http://www.w3.org/2000/svg">
<g clip-path="url(#clip0_314_628)">
<path d="M0 14C0 6.26801 6.26801 0 14 0H382C389.732 0 396 6.26801 396 14V176H0V14Z" fill="#FECD81"/>
<g clip-path="url(#clip1_314_628)">
<g clip-path="url(#clip2_314_628)">
<path d="M246.814 13H278.03C280.187 14.2935 289.881 15.1565 293.116 15.7967C300.768 17.3113 307.674 19.9922 315.119 22.1899C325.175 25.4475 334.585 31.0766 343.409 36.7615C352.949 42.907 359.575 48.8419 367.428 56.8456C384.072 73.8103 396.34 94.1371 403.1 116.969C405.078 123.604 406.333 129.83 407.498 136.662C407.817 138.525 408.052 143.706 409 144.884V174.574C408.136 176.364 406.232 191.076 405.084 195.385C395.099 234.167 369.816 267.243 335.013 287.053C331.625 289.009 324.916 292.362 321.349 293.862C290.724 306.744 258.818 309.125 226.595 301.255C174.662 288.571 133.124 246.956 120.565 195.013C118.941 188.888 117.413 182.162 116.752 175.954C109.195 104.908 151.236 37.9375 221.025 18.7652C227.42 17.0084 232.996 15.0697 239.797 14.5321C241.474 14.3995 245.505 13.8442 246.814 13Z" fill="#F6B146"/>
<circle cx="262" cy="160" r="147" fill="#84C176"/>
<path d="M353.713 109.508C359.027 109.542 364.506 115.002 362.318 120.464C360.885 124.041 356.27 126.87 352.986 128.754C337.237 137.785 315.063 144.287 297.42 137.728C297.161 137.616 296.905 137.498 296.652 137.373C294.302 136.236 291.503 134.506 290.92 131.795C290.096 127.747 288.751 120.582 290.841 116.876C294.986 109.527 305.788 115.883 311.893 116.822C322.131 118.397 332.205 117.618 341.946 114.049C345.918 112.594 349.713 110.764 353.713 109.508Z" fill="#4699AD"/>
<path d="M169.623 110.991C174.831 110.531 182.079 114.415 187.477 115.831C199.581 119.006 210.346 118.443 222.066 114.163C237.17 108.647 237.338 120.421 234.968 131.269C234.382 133.95 232.832 135.076 230.638 136.356C230.307 136.507 229.974 136.653 229.639 136.795C214.431 143.258 195.446 139.875 180.859 133.443C175.061 130.77 166.388 127.572 163.47 121.446C161.237 116.759 165.463 112.625 169.623 110.991Z" fill="#4699AD"/>
<path d="M315.082 77.4243C321.607 77.0258 327.746 77.4206 333.787 80.0959C337.527 81.8533 342.721 83.915 344.468 87.9621C345.331 89.9621 345.002 92.6454 342.653 93.3922C339.741 94.3178 337.58 92.9696 335.009 91.7313C329.83 89.3598 322.899 88.2346 317.364 89.8409C315.189 90.4723 309.918 92.8872 308.1 91.3003C305.139 88.7161 305.92 82.4996 308.465 79.7755C310.454 77.6643 312.635 77.6124 315.082 77.4243Z" fill="#4699AD"/>
<path d="M201.473 77.4292C202.167 77.3511 203.554 77.3324 204.318 77.3232C209.118 77.4234 213.157 76.7849 217.204 80.122C220.424 82.7775 221.002 92.0333 215.521 92.5122C214.467 92.6041 209.331 90.4281 207.788 89.9825C204.808 89.122 202.806 88.9147 199.627 88.865C194.266 89.2546 190.536 90.7901 185.481 92.2782C181.901 93.3316 179.138 87.8171 182.062 85.0095C186.885 80.3787 195.046 77.8693 201.473 77.4292Z" fill="#4699AD"/>
</g>
</g>
</g>
<defs>
<clipPath id="clip0_314_628">
<rect width="396" height="176" fill="white"/>
</clipPath>
<clipPath id="clip1_314_628">
<rect width="294" height="294" fill="white" transform="translate(115 13)"/>
</clipPath>
<clipPath id="clip2_314_628">
<rect width="294" height="294" fill="white" transform="translate(115 13)"/>
</clipPath>
</defs>
</svg>
