<svg width="396" height="176" viewBox="0 0 396 176" fill="none" xmlns="http://www.w3.org/2000/svg">
<g clip-path="url(#clip0_314_634)">
<path d="M0 14C0 6.26801 6.26801 0 14 0H382C389.732 0 396 6.26801 396 14V176H0V14Z" fill="#FECD81"/>
<circle cx="276" cy="173" r="159" fill="#84C176"/>
<path d="M322.48 130.46C320.385 131.194 316.113 130.037 313.747 129.776C309.972 129.291 306.283 129.657 302.794 127.855C297.491 125.115 295.951 118.553 298.698 113.469C301.698 107.918 311.265 107.64 316.967 106.759L335.746 103.796L357.275 100.453C364.517 99.3374 377.928 95.7294 379.513 106.613C379.83 114.21 380.18 124.763 377.065 131.717C376.355 133.304 373.575 135.585 372.06 135.662C369.438 135.794 355.721 135.718 353.783 135.035C354.694 142.171 356.354 149.253 355.898 156.414C353.926 158.113 351.956 159.711 349.45 160.544C346.373 161.566 329.98 161.534 326.131 161.328C324.683 161.25 323.046 160.923 322.072 159.739C320.079 157.318 322.074 134.545 322.48 130.46Z" fill="#F5B145"/>
<path d="M322.48 130.461C323.206 128.741 324.558 126.798 326.298 126.418C330.75 125.447 346.997 125.524 350.731 126.152L353.165 128.121C353.585 130.542 353.55 132.625 353.783 135.036C354.694 142.172 356.353 149.254 355.898 156.415C353.926 158.114 351.956 159.712 349.45 160.544C346.372 161.567 329.98 161.534 326.131 161.329C324.683 161.251 323.046 160.923 322.072 159.74C320.079 157.319 322.074 134.546 322.48 130.461Z" fill="#4699AD"/>
<path d="M190.472 137.162C184.236 137.824 172.562 141.024 167.067 139.382C164.742 138.687 162.686 136.694 161.59 134.57C159.601 130.717 160.827 112.972 162.275 108.658C163.113 106.16 164.727 104.558 167.089 103.42C168.73 102.629 170.12 102.405 171.923 102.473C177.668 102.691 183.646 103.712 189.351 104.445C196.105 105.313 202.899 106.002 209.665 106.791L224.829 108.627C231.669 109.397 239.809 108.896 242.373 116.208C246.224 127.192 235.38 130.978 226.75 131.4C224.487 131.511 223.367 132.658 222.468 130.163C222.857 136.275 223.492 142.352 223.821 148.471C224.126 151.781 225.683 154.871 223.037 157.68C220.779 160.076 217.167 161.271 213.899 161.29C207.293 161.329 200.64 161.261 194.029 161.273C193.164 161.274 192.139 161.213 191.29 161.066C190.813 160.357 190.063 159.228 189.9 158.403C188.629 151.977 190.685 143.755 190.472 137.162Z" fill="#F5B145"/>
<path d="M191.545 128.641C192.584 127.618 193.582 126.842 194.991 126.393C197.772 125.507 217.732 125.252 219.91 126.473C221.437 127.329 221.96 128.571 222.469 130.164C222.857 136.276 223.493 142.352 223.821 148.471C224.126 151.781 225.683 154.871 223.037 157.68C220.779 160.077 217.167 161.271 213.899 161.291C207.293 161.329 200.64 161.261 194.029 161.273C193.164 161.274 192.14 161.214 191.29 161.067C190.813 160.357 190.063 159.228 189.9 158.403C188.629 151.978 190.686 143.755 190.472 137.162C190.501 135.375 191.187 130.348 191.545 128.641Z" fill="#4699AD"/>
<path d="M115 176.147L115.456 175.985C116.502 177.075 116.671 185.544 116.773 187.591C116.407 187.487 116.245 187.416 115.895 187.264C115.458 185.762 115.985 185.13 115.674 184.312L115 185.163V176.147Z" fill="#73AF63" fill-opacity="0.0117647"/>
</g>
<defs>
<clipPath id="clip0_314_634">
<rect width="396" height="176" fill="white"/>
</clipPath>
</defs>
</svg>
