<svg width="396" height="176" viewBox="0 0 396 176" fill="none" xmlns="http://www.w3.org/2000/svg">
<g clip-path="url(#clip0_314_604)">
<path d="M0 14C0 6.26801 6.26801 0 14 0H382C389.732 0 396 6.26801 396 14V176H0V14Z" fill="#FAA77D"/>
<path d="M255.4 21.2562C283.49 14.2858 313.053 16.2431 339.979 26.8559C345.781 29.1416 351.524 31.1336 356.602 34.9557C357.705 35.7859 357.756 36.0185 359.189 36.1277C363.067 35.6783 366.941 35.1949 370.811 34.6777C378.173 33.6228 388.484 30.76 389.562 41.4893C390.115 46.9933 388.407 53.4766 388.934 59.3813C389.193 59.7403 389.416 59.9311 389.723 60.2501C410.685 81.9738 424.03 109.915 427.75 139.873C432.758 180.58 419.43 224.36 390.499 253.807C388.742 255.595 386.987 257.417 385.178 259.151C361.593 281.812 330.662 295.262 298.004 297.055C253.699 299.467 215.654 285.06 185.026 252.822C169.192 235.983 157.969 215.344 152.443 192.901C151.679 189.917 150.62 186.382 150.178 183.362C148.04 168.731 148.317 153.652 149.239 138.93C149.604 133.105 150.928 128.142 152.297 122.582C157.498 101.451 167.31 80.4461 182.611 64.7408C183.581 63.7451 184.373 61.9613 185.366 60.9286C189.853 56.4281 199.618 48.1816 199.618 48.1816C199.618 48.1816 238.821 20.2014 255.4 21.2562Z" fill="#4799AE"/>
<path d="M359.188 36.1286C363.067 35.6792 366.941 35.1958 370.811 34.6786C378.173 33.6237 388.484 30.7609 389.562 41.4902C390.115 46.9942 388.407 53.4775 388.934 59.3822C385.117 65.6215 384.777 66.5275 376.961 66.0152C366.934 65.358 357.077 63.85 347.129 62.5147C340.784 61.663 334.237 61.3882 327.889 60.4667C323.421 59.812 318.963 58.8065 317.615 53.8372C316.874 51.105 317.286 48.6345 318.608 46.1347C320.993 41.6225 326.444 42.0235 330.737 41.0162C339.906 38.9345 350.187 38.7118 359.188 36.1286Z" fill="#F5B145"/>
<path d="M219.918 17.2318C231.81 18.1531 243.516 20.5001 255.4 21.2562C258.084 22.7922 260.092 24.4901 260.896 27.5952C262.256 32.8479 260.073 37.4713 254.72 38.7164C245.047 40.9668 235.278 41.9788 225.543 43.5773L205.599 47.0486C204.046 47.3123 200.87 48.0348 199.618 48.1816C198.955 48.0531 197.809 48.0803 197.024 47.9648C194.851 47.6453 193.304 46.7851 191.401 45.7906C190.489 44.3528 189.395 42.2448 189.291 40.2686C188.97 34.1552 189.428 27.0322 191.402 21.256C194.52 13.3944 212.806 16.6809 219.918 17.2318Z" fill="#F5B145"/>
<path d="M350.396 78.3494C351.332 78.1494 353.054 78.2871 354.038 78.2134C383.414 76.0104 410.002 101.028 408.307 130.748C408.012 135.935 408.103 139.545 406.475 144.702C392.697 188.385 334.186 195.175 311.495 154.992C309.184 150.901 307.924 146.405 305.782 142.362C297.231 136.969 278.341 135.68 270.694 142.523C263.707 168.908 243.599 184.466 216.188 183.382C214.781 183.325 213.373 183.095 211.986 182.898C172.504 177.295 154.108 129.885 179.437 99.0444C186.233 90.7691 195.908 84.0206 206.444 81.6381C219.959 78.5816 235.206 80.1601 247.119 87.5169C258.926 94.8931 267.285 106.693 270.326 120.279C271.257 124.282 271.184 128.029 272.056 131.705C272.557 131.404 273.068 131.12 273.588 130.854C279.267 128.002 291.247 127.708 297.437 129.206C300.203 129.876 302.518 130.752 305.22 131.633C305.196 131.45 305.174 131.265 305.154 131.081C304.84 128.051 305.266 125.361 305.599 122.365C308.122 99.6226 327.445 80.7646 350.396 78.3494Z" fill="#9EA579"/>
<path d="M217.805 89.2746C241.253 88.1798 261.137 106.322 262.191 129.771C263.245 153.22 245.068 173.073 221.617 174.086C198.224 175.096 178.431 156.974 177.38 133.583C176.329 110.192 194.416 90.3666 217.805 89.2746Z" fill="#4799AE"/>
<path d="M223.262 127.601C227.323 127.507 240.398 126.977 243.452 128.42C244.102 129.032 244.264 129.933 244.441 130.779C245.134 134.076 247.265 153.167 245.9 155.067C244.516 156.994 242.262 157.968 239.979 158.245C234.583 158.354 229.144 158.242 223.744 158.295C221.509 158.317 219.055 158.309 216.862 157.946C215.756 152.569 216.802 135.296 217.599 129.74C219.988 128.248 220.38 127.902 223.262 127.601Z" fill="#F5B145"/>
<path d="M352.336 87.5044C375.669 85.1146 396.515 102.11 398.873 125.447C401.233 148.783 384.209 169.606 360.869 171.933C337.573 174.256 316.798 157.272 314.444 133.98C312.09 110.687 329.047 89.8896 352.336 87.5044Z" fill="#4799AE"/>
<path d="M338.619 127.597C344.425 127.472 351.713 127.088 357.486 127.999C358.209 128.113 359.554 129.046 360.19 129.475C360.947 137.057 361.28 145.45 361.865 153.1C362.067 155.735 357.909 157.872 355.555 158.216C351.74 158.362 347.509 158.272 343.67 158.287C340.098 158.301 335.505 158.409 332.057 157.919C331.416 153.015 331.63 134.694 333.649 129.385C334.082 128.245 337.255 127.772 338.619 127.597Z" fill="#F5B145"/>
</g>
<defs>
<clipPath id="clip0_314_604">
<rect width="396" height="176" fill="white"/>
</clipPath>
</defs>
</svg>
