<svg width="396" height="176" viewBox="0 0 396 176" fill="none" xmlns="http://www.w3.org/2000/svg">
<g clip-path="url(#clip0_314_601)">
<path d="M0 14C0 6.26801 6.26801 0 14 0H382C389.732 0 396 6.26801 396 14V176H0V14Z" fill="#ABD4D7"/>
<g clip-path="url(#clip1_314_601)">
<circle cx="280" cy="166" r="157" fill="#F5B145"/>
<path d="M94.9111 72.6599C135.867 64.7186 139.584 58.0531 135.664 13.1799C143.06 57.4034 151.763 61.9507 190.239 60.2992C152.351 64.0111 145.623 70.4834 149.486 119.779C141.626 70.6549 136.395 68.0716 94.9111 72.6599Z" fill="#F17C3B" fill-opacity="0.84"/>
<path d="M179.549 -5.84286C202.311 7.93474 206.922 6.37486 224.278 -16.5182C208.843 7.55544 211.011 13.4308 229.909 29.1207C210.408 14.657 204.456 14.8365 185.18 39.7961C202.493 13.2069 201.125 9.74595 179.549 -5.84286Z" fill="#F17C3B" fill-opacity="0.84"/>
<path d="M155.664 159.51C172.281 156.288 173.789 153.583 172.199 135.377C175.199 153.32 178.73 155.165 194.341 154.495C178.969 156.001 176.239 158.627 177.807 178.627C174.618 158.696 172.495 157.648 155.664 159.51Z" fill="#F17C3B" fill-opacity="0.84"/>
<path d="M343.595 100.525C349.567 100.022 351.858 107.643 353.263 112.252C355.443 119.404 345.557 121.502 341.285 124.309C338.24 126.31 331.352 132.036 329.66 134.937L329.815 135.304C330.987 135.665 332.847 135.347 334.01 135.07C347.567 131.836 361.29 133.881 374.332 138.318C378.567 139.758 384.045 142.258 383.425 147.761C382.925 152.22 377.025 157.069 373.627 159.712C372.41 160.663 370.402 161.797 368.797 161.558C363.07 160.454 358.645 156.22 353.027 154.024C343.987 150.491 335.187 148.358 325.702 146.425C320.664 145.397 313.193 144.927 309.644 141.234C308.99 138.593 308.748 135.926 309.925 133.42C314.431 123.826 334.747 103.771 343.595 100.525Z" fill="#4699AD"/>
<path d="M212.832 111.625C215.394 111.574 230.159 111.013 231.687 112.895C233.471 116.256 233.731 122.517 233.986 126.247C234.79 137.988 239.142 146.448 223.434 146.504C217.87 146.448 206.079 147.14 201.532 145.51C201.289 144.11 201.161 142.71 201.093 141.292C200.911 137.535 201.298 116.234 203.463 114.035C205.823 111.637 209.718 111.727 212.832 111.625Z" fill="#4699AD"/>
<path d="M335.638 37.7419C377.014 32.4134 381.147 25.997 380.08 -19.0344C384.656 25.569 393.054 30.6589 431.557 31.4505C393.511 32.7525 386.385 38.7852 387.115 88.2268C382.386 38.7029 377.328 35.7932 335.638 37.7419Z" fill="#F17C3B" fill-opacity="0.84"/>
<path d="M406.865 131.641C419.091 138.468 438.58 126.85 450.394 105.692C438.58 126.85 438.914 149.537 451.14 156.363C438.914 149.537 419.425 161.154 407.611 182.313C419.425 161.154 419.091 138.468 406.865 131.641Z" fill="#F17C3B" fill-opacity="0.84"/>
</g>
</g>
<defs>
<clipPath id="clip0_314_601">
<rect width="396" height="176" fill="white"/>
</clipPath>
<clipPath id="clip1_314_601">
<rect width="398" height="398" fill="white" transform="translate(72 -57)"/>
</clipPath>
</defs>
</svg>
