<svg width="396" height="176" viewBox="0 0 396 176" fill="none" xmlns="http://www.w3.org/2000/svg">
<g clip-path="url(#clip0_766_1044)">
<path d="M0 14C0 6.26801 6.26801 0 14 0H382C389.732 0 396 6.26801 396 14V176H0V14Z" fill="#FECD81"/>
<path d="M253.385 16H288.684C290.441 17.3052 303.902 18.4069 307.277 19.4057C314.114 21.3237 320.926 23.4013 327.69 25.5778C336.319 28.3944 344.015 32.771 351.959 37.0472C352.39 37.2791 353.628 38.1157 353.964 38.4169C357.572 41.6524 362.456 43.5806 366.196 46.3324C398.086 70.0473 420.186 104.621 428.318 143.522C429.161 147.446 429.747 151.641 430.289 155.581C430.783 159.185 430.834 169.708 431.867 172.504V178.814L431.802 178.977C431.034 180.798 430.561 193.602 430.144 196.978C424.951 239.161 401.289 279.575 366.649 304.239C365.69 304.922 363.836 307.466 363.137 307.782C357.887 310.152 353.246 313.471 348.302 316.411C306.703 339.146 256.274 341.884 212.11 324.87C183.176 313.466 158.179 293.903 140.156 268.557C92.3084 201.566 104.144 102.873 169.837 51.2166C189.243 35.6408 210.452 25.4198 234.569 19.574C237.558 18.8495 252.062 16.9052 253.385 16Z" fill="#84C176"/>
<path d="M316.2 109.13C316.684 109.089 317.09 109.066 317.579 109.121C326.11 110.079 325.611 116.273 329.984 122.749C338.087 134.751 346.322 140.279 359.122 146.307C363.134 148.154 369.094 148.776 372.014 152.31C374.928 155.837 374.036 162.568 370.251 165.239C367.039 167.507 364.035 167.141 360.443 166.588C339.975 163.036 317.732 152.255 306.321 133.997C303.458 129.417 300.993 125.47 304.573 120.256C308.204 114.968 309.429 110.796 316.2 109.13Z" fill="#4699AD"/>
<path d="M229.461 109.09C236.474 108.518 242.28 117.954 244.321 123.747C245.303 126.533 242.41 132.519 240.743 134.925C232.643 146.615 220.942 155.193 207.789 160.443C200.499 163.531 197.096 164.596 189.331 166.184C183.16 167.185 175.944 168.326 174.296 160.522C171.928 149.311 181.479 149.243 188.305 146.322C197.723 142.293 206.903 136.189 213.338 128.306C217.693 122.969 220.121 116.051 224.758 111.063C225.849 109.886 227.924 109.451 229.461 109.09Z" fill="#4699AD"/>
</g>
<defs>
<clipPath id="clip0_766_1044">
<rect width="396" height="176" fill="white"/>
</clipPath>
</defs>
</svg>
