<svg width="180" height="33" viewBox="0 0 180 33" fill="none" xmlns="http://www.w3.org/2000/svg">
<g clip-path="url(#clip0_24_371)">
<mask id="mask0_24_371" style="mask-type:luminance" maskUnits="userSpaceOnUse" x="1" y="1" width="171" height="32">
<path d="M171.242 1.12207H1.71228V32.3621H171.242V1.12207Z" fill="white"/>
</mask>
<g mask="url(#mask0_24_371)">
<path d="M38.9923 1.71191H49.5223C60.0023 1.71191 65.4723 7.68191 65.4723 16.6119C65.4723 25.5419 60.0023 31.5119 49.5223 31.5119H38.9923V1.71191ZM49.5223 24.6719C55.4923 24.6719 57.9923 21.5719 57.9923 16.6019C57.9923 11.6319 55.4823 8.53192 49.5223 8.53192H46.3823V24.6619H49.5223V24.6719Z" fill="#16335A"/>
<path d="M68.7423 1.71213H90.7423V8.54214H76.1223V13.4221H88.1023V19.3421H76.1223V24.6721H90.7423V31.5021H68.7423V1.70215V1.71213Z" fill="#16335A"/>
<path d="M93.8022 22.7121H101.002C101.002 24.5821 102.142 25.7621 105.012 25.7621C107.882 25.7621 109.022 24.5821 109.022 22.7121C109.022 20.8421 106.742 20.3021 104.012 19.8021C99.7722 19.0221 94.3522 18.0221 94.3522 10.7821C94.3522 5.13207 98.6323 1.12207 105.062 1.12207C111.492 1.12207 115.542 4.90206 115.772 10.5521H108.842C108.802 8.82206 107.702 7.45209 105.152 7.45209C102.602 7.45209 101.462 8.95208 101.462 10.5021C101.462 12.4621 103.742 12.9121 106.522 13.4121C110.802 14.1921 116.232 15.1921 116.232 22.4321C116.232 28.3521 111.762 32.0921 105.022 32.0921C98.2822 32.0921 93.9523 28.4921 93.8123 22.7021L93.8022 22.7121Z" fill="#16335A"/>
<path d="M118.862 22.7121H126.062C126.062 24.5821 127.202 25.7621 130.072 25.7621C132.942 25.7621 134.082 24.5821 134.082 22.7121C134.082 20.8421 131.802 20.3021 129.072 19.8021C124.832 19.0221 119.412 18.0221 119.412 10.7821C119.412 5.13207 123.692 1.12207 130.122 1.12207C136.552 1.12207 140.602 4.90206 140.832 10.5521H133.902C133.862 8.82206 132.762 7.45209 130.212 7.45209C127.662 7.45209 126.522 8.95208 126.522 10.5021C126.522 12.4621 128.802 12.9121 131.582 13.4121C135.862 14.1921 141.292 15.1921 141.292 22.4321C141.292 28.3521 136.832 32.0921 130.082 32.0921C123.332 32.0921 119.012 28.4921 118.872 22.7021L118.862 22.7121Z" fill="#16335A"/>
<path d="M144.992 14.1921C144.992 6.08208 149.592 1.12207 158.072 1.12207C166.552 1.12207 171.242 6.08208 171.242 14.1921V31.5021H163.862V23.0321H152.192V31.5021H144.992V14.1921ZM163.852 16.6521V14.1921C163.852 10.0921 162.072 7.95209 158.022 7.95209C153.972 7.95209 152.192 10.0921 152.192 14.1921V16.6521H163.862H163.852Z" fill="#16335A"/>
<path d="M2.84227 18.4817L11.5323 13.4817L15.6423 11.1117L9.58227 7.62169L2.34227 14.8617C1.48227 15.7117 1.48227 17.1317 2.34227 17.9817L2.83227 18.4717L2.84227 18.4817ZM21.7023 5.6617V18.2317L29.6623 13.6217L21.7023 5.6617ZM17.5523 11.0817L20.7123 12.9217V4.70171L18.1823 2.17168C17.3223 1.32168 15.9123 1.32168 15.0523 2.17168L10.2823 6.9417L17.5523 11.0817ZM3.54228 19.2117L11.5423 27.1717V14.6017L3.54228 19.2117ZM30.9223 14.8317L30.4323 14.3417L21.7423 19.3417L17.6323 21.7117L23.6823 25.2017L30.9223 17.9617C31.7823 17.1117 31.7823 15.6917 30.9223 14.8417M16.6023 22.3017L12.4923 19.9317V28.1517L15.0223 30.6817C15.8823 31.5317 17.2923 31.5317 18.1523 30.6817L22.9223 25.9117L16.6023 22.2917V22.3017Z" fill="#16335A"/>
</g>
<mask id="mask1_24_371" style="mask-type:luminance" maskUnits="userSpaceOnUse" x="-122" y="-400" width="588" height="574">
<path d="M465.582 -399.938H-121.418V173.573H465.582V-399.938Z" fill="white"/>
</mask>
<g mask="url(#mask1_24_371)">
<path d="M175.792 3.08276C177.152 3.08276 178.152 4.17278 178.152 5.53278C178.152 6.89278 177.152 7.98279 175.792 7.98279C174.432 7.98279 173.422 6.89278 173.422 5.53278C173.422 4.17278 174.442 3.08276 175.792 3.08276ZM175.792 2.34277C173.982 2.34277 172.512 3.75278 172.512 5.50278C172.512 7.25278 173.982 8.70279 175.792 8.70279C177.602 8.70279 179.052 7.29278 179.052 5.50278C179.052 3.71278 177.622 2.34277 175.792 2.34277ZM175.362 4.56277C175.452 4.56277 175.572 4.54279 175.722 4.54279C176.102 4.54279 176.312 4.69277 176.312 4.96277C176.312 5.23277 176.052 5.36276 175.692 5.36276H175.372V4.57278L175.362 4.56277ZM175.342 5.94278H175.662C176.002 5.94278 176.172 6.07276 176.232 6.39276C176.312 6.71276 176.362 6.97277 176.462 7.09277H177.382C177.322 6.98277 177.252 6.81278 177.152 6.35278C177.062 5.94278 176.892 5.69276 176.572 5.58276V5.54279C176.962 5.43279 177.252 5.16277 177.252 4.84277C177.252 4.54277 177.122 4.31277 176.912 4.18277C176.702 4.05277 176.422 3.95279 175.782 3.95279C175.212 3.95279 174.762 4.01279 174.522 4.04279V7.07278H175.352V5.92276L175.342 5.94278Z" fill="#013333"/>
</g>
</g>
<defs>
<clipPath id="clip0_24_371">
<rect width="180" height="33" fill="white"/>
</clipPath>
</defs>
</svg>
